<svg xmlns="http://www.w3.org/2000/svg" width="260pt" height="283pt" viewBox="0 0 260 283"><path style="stroke:none;fill-rule:nonzero;fill:#498b6c;fill-opacity:1" d="M88.398 140.402s35.22 22.246 71.383 12.891c36.164-9.352 21.43 14.781 9.614 19.656-11.82 4.871-102.426 52.98-119.208 7.86-16.78-45.121-14.417-29.715 38.211-40.407Zm0 0"/><path style="stroke:none;fill-rule:nonzero;fill:#70ab7c;fill-opacity:1" d="M173.332 92.055v2.28a176.568 176.568 0 0 1-6.934 19.024 331.309 331.309 0 0 1-77.605 26.727 516.388 516.388 0 0 1-53.652 9.277 193.606 193.606 0 0 0 7.875 18.078 212.066 212.066 0 0 0 20.96 33.567s13-1.176 32.145-4.95a360.866 360.866 0 0 0 55.152-15.722 42.5 42.5 0 0 0 2.364 8.805c3.383 6.414 6.433 13 9.136 19.73a45.14 45.14 0 0 1 .946 4.48c1.972 13.993-5.672 27.829-14.024 38.598a18.17 18.17 0 0 1-11.03 7.86 10.406 10.406 0 0 1-6.145-1.098l-5.043 4.953c-2.204 1.965-4.489 4.008-6.934 5.895a275.898 275.898 0 0 1-80.242-96.688A275.25 275.25 0 0 1 11.344 50.703V12.895a62.12 62.12 0 0 0 18.199 43.832 62.38 62.38 0 0 0 43.887 18.27 57.931 57.931 0 0 0 17.41-2.595 62.134 62.134 0 0 0 36.164-28.3 69.627 69.627 0 0 1 7.879 7.859c.41-1.352.937-2.668 1.578-3.93 2.363 1.102 4.96 2.36 7.879 3.852a80.009 80.009 0 0 1 22.297 17.219 25.279 25.279 0 0 1 6.246 10.632 25.166 25.166 0 0 1 .449 12.32Zm0 0"/><path style="stroke:none;fill-rule:nonzero;fill:#498b6c;fill-opacity:1" d="M88.398 140.402a515.899 515.899 0 0 1-53.261 8.961 216.002 216.002 0 0 1-10.95-36.71A158.871 158.871 0 0 1 20.328 53.3a65.927 65.927 0 0 0 26.156 15.722l1.735.391a49.72 49.72 0 0 0 6.933 1.34 98.588 98.588 0 0 0 23.082.785 47.18 47.18 0 0 1 11.11 0l1.969.39a12.515 12.515 0 0 1 5.124 2.755l1.18 1.257a19.269 19.269 0 0 1 2.547 7.93 19.232 19.232 0 0 1-1.05 8.262c-2.915 13.523-7.88 26.652-9.61 40.328a54.534 54.534 0 0 0-1.106 7.941Zm71.622 35.844a64.921 64.921 0 0 0-9.063 10.457 62.27 62.27 0 0 1-15.758 14.07c-6.222 3.696-15.285 7.86-17.015 15.723-2.368 10.613 7.879 20.91 11.027 30.5a11.921 11.921 0 0 1 0 9.59c-2.52 4.012-8.508 3.93-13 2.437a59.353 59.353 0 0 1-21.035-13.597 147.442 147.442 0 0 1-35.297-49.84 12.822 12.822 0 0 1-1.86-5.84 12.8 12.8 0 0 1 1.07-6.031 13.215 13.215 0 0 1 4.622-3.227 13.225 13.225 0 0 1 5.543-1.02 595.502 595.502 0 0 1 90.766-3.222Zm0 0"/><path style="stroke:none;fill-rule:nonzero;fill:#498b6c;fill-opacity:1" d="M121.332 251.559a1.408 1.408 0 0 1 0 1.18c-.629.628-1.652 0-2.441 0a164.827 164.827 0 0 1-19.145-14.622 238.393 238.393 0 0 1-21.906-20.832 201.032 201.032 0 0 1-13.313-15.722s13-1.18 32.145-4.954l.55 1.493a200.295 200.295 0 0 0 13.079 28.93c4.176 7.312 12.293 15.488 11.031 24.527Zm0 0"/><path style="fill:none;stroke-width:2;stroke-linecap:round;stroke-linejoin:round;stroke:#2e5844;stroke-opacity:1;stroke-miterlimit:4" d="M16.74 2a7.432 7.432 0 0 1-7.4 7.41A7.418 7.418 0 0 1 1.93 2v4.49A32.874 32.874 0 0 0 16.74 34" transform="scale(7.87879 7.86111)"/><path style="fill:none;stroke-width:2;stroke-linecap:round;stroke-linejoin:round;stroke:#2e5844;stroke-opacity:1;stroke-miterlimit:4" d="M31.55 2.11A11.133 11.133 0 0 1 30 6.49c-1.37 2.42-4 5.44-9 8a41.987 41.987 0 0 1-9.85 3.4A65.25 65.25 0 0 1 4.46 19" transform="scale(7.87879 7.86111)"/><path style="fill:none;stroke-width:2;stroke-linecap:round;stroke-linejoin:round;stroke:#2e5844;stroke-opacity:1;stroke-miterlimit:4" d="M31.56 2c.005.03.005.06 0 .09A7.25 7.25 0 0 1 30 6.49c-.2.272-.421.53-.66.77a7.409 7.409 0 0 1-5.22 2.17 7.181 7.181 0 0 1-3-.63A7.45 7.45 0 0 1 16.74 2m14.74 10.54c0 .42-8.31 17.94-14.74 21.44" transform="scale(7.87879 7.86111)"/><path style="fill:none;stroke-width:2;stroke-linecap:round;stroke-linejoin:round;stroke:#2e5844;stroke-opacity:1;stroke-miterlimit:4" d="M8.14 25.57s1.65-.15 4.08-.63a45.723 45.723 0 0 0 7-2c4.55-1.71 9.26-4.49 11.48-9 .218-.51.482-.999.79-1.46" transform="scale(7.87879 7.86111)"/><path style="stroke:none;fill-rule:nonzero;fill:#2e5844;fill-opacity:1" d="M248.656 85.219c4.352 0 7.88-3.52 7.88-7.864 0-4.34-3.528-7.859-7.88-7.859-4.351 0-7.879 3.52-7.879 7.86 0 4.343 3.528 7.863 7.88 7.863Zm0 0"/></svg>